<svg id="visual" viewBox="0 0 450 900" width="450" height="900" xmlns="http://www.w3.org/2000/svg" xmlns:xlink="http://www.w3.org/1999/xlink" version="1.1"><rect x="0" y="0" width="450" height="900" fill="#FFFFFF"></rect><defs><linearGradient id="grad1_0" x1="0%" y1="0%" x2="100%" y2="100%"><stop offset="30%" stop-color="#ffffff" stop-opacity="1"></stop><stop offset="70%" stop-color="#ffffff" stop-opacity="1"></stop></linearGradient></defs><defs><linearGradient id="grad2_0" x1="0%" y1="0%" x2="100%" y2="100%"><stop offset="30%" stop-color="#ffffff" stop-opacity="1"></stop><stop offset="70%" stop-color="#ffffff" stop-opacity="1"></stop></linearGradient></defs><g transform="translate(450, 0)"><path d="M0 405C-32.9 352.8 -65.7 300.6 -119.8 289.2C-173.8 277.7 -249.1 307 -286.4 286.4C-323.6 265.8 -322.9 195.3 -336.3 139.3C-349.7 83.3 -377.4 41.6 -405 0L0 0Z" fill="#FBAE3C"></path></g><g transform="translate(0, 900)"><path d="M0 -405C57.5 -404 115 -403 155 -374.2C195 -345.3 217.4 -288.7 247.5 -247.5C277.6 -206.3 315.2 -180.6 342.8 -142C370.3 -103.3 387.6 -51.7 405 0L0 0Z" fill="#FBAE3C"></path></g></svg>